<?xml version="1.0" encoding="iso-8859-1"?>
<!-- Generator: Adobe Illustrator 19.0.0, SVG Export Plug-In . SVG Version: 6.00 Build 0)  -->
<svg xmlns="http://www.w3.org/2000/svg" xmlns:xlink="http://www.w3.org/1999/xlink" version="1.1" id="Capa_1" x="0px" y="0px" viewBox="0 0 512.001 512.001" style="enable-background:new 0 0 512.001 512.001;" xml:space="preserve" width="512px" height="512px">
<g>
	<g>
		<path d="M286.754,377.966h-61.509c-5.523,0-10,4.478-10,10c0,5.523,4.477,10,10,10h61.509c5.523,0,10-4.478,10-10    C296.754,382.444,292.277,377.966,286.754,377.966z" fill="#325d88"/>
	</g>
</g>
<g>
	<g>
		<path d="M231.95,195.801c-0.13-0.64-0.32-1.269-0.57-1.87c-0.25-0.6-0.56-1.18-0.92-1.73c-0.36-0.54-0.78-1.06-1.24-1.52    c-0.46-0.46-0.97-0.88-1.52-1.24c-0.54-0.359-1.12-0.67-1.73-0.92c-0.6-0.25-1.23-0.439-1.87-0.569c-1.29-0.261-2.61-0.261-3.9,0    c-0.64,0.13-1.27,0.319-1.88,0.569c-0.6,0.25-1.18,0.561-1.72,0.92c-0.55,0.36-1.06,0.78-1.52,1.24    c-0.46,0.459-0.88,0.98-1.25,1.52c-0.36,0.55-0.66,1.13-0.91,1.73c-0.25,0.6-0.45,1.23-0.57,1.87c-0.13,0.639-0.2,1.3-0.2,1.95    c0,0.66,0.07,1.31,0.2,1.96c0.12,0.64,0.32,1.269,0.57,1.87c0.25,0.6,0.55,1.18,0.91,1.73c0.37,0.54,0.79,1.049,1.25,1.52    c0.46,0.46,0.97,0.87,1.52,1.239c0.54,0.36,1.12,0.671,1.72,0.921c0.61,0.25,1.24,0.439,1.88,0.569c0.64,0.129,1.3,0.19,1.95,0.19    c0.65,0,1.31-0.061,1.95-0.19c0.64-0.13,1.27-0.319,1.87-0.569c0.61-0.25,1.19-0.561,1.73-0.921c0.55-0.369,1.06-0.779,1.52-1.239    c0.46-0.47,0.88-0.98,1.24-1.52c0.36-0.55,0.67-1.13,0.92-1.73s0.44-1.23,0.57-1.87c0.13-0.65,0.2-1.3,0.2-1.96    C232.15,197.102,232.08,196.441,231.95,195.801z" fill="#325d88"/>
	</g>
</g>
<g>
	<g>
		<path d="M222.149,224.028c-5.523,0-10,4.478-10,10v78.539c0,5.522,4.477,10,10,10c5.523,0,10-4.477,10-10v-78.539    C232.149,228.506,227.672,224.028,222.149,224.028z" fill="#325d88"/>
	</g>
</g>
<g>
	<g>
		<path d="M386.7,195.801c-0.13-0.64-0.32-1.269-0.57-1.87c-0.25-0.6-0.56-1.18-0.92-1.73c-0.37-0.54-0.79-1.06-1.25-1.52    c-0.46-0.46-0.97-0.88-1.52-1.24c-0.54-0.359-1.12-0.67-1.72-0.92c-0.61-0.25-1.24-0.439-1.87-0.569    c-1.29-0.261-2.62-0.261-3.91,0c-0.64,0.13-1.27,0.319-1.87,0.569c-0.61,0.25-1.19,0.561-1.73,0.92    c-0.55,0.36-1.06,0.78-1.52,1.24c-0.46,0.459-0.88,0.98-1.24,1.52c-0.36,0.55-0.67,1.13-0.92,1.73c-0.25,0.6-0.44,1.23-0.57,1.87    c-0.13,0.639-0.2,1.3-0.2,1.95c0,0.66,0.07,1.31,0.2,1.96c0.13,0.64,0.32,1.269,0.57,1.87c0.25,0.6,0.56,1.18,0.92,1.73    c0.36,0.54,0.78,1.049,1.24,1.52c0.46,0.46,0.97,0.87,1.52,1.239c0.54,0.36,1.12,0.671,1.73,0.921c0.6,0.25,1.23,0.439,1.87,0.569    c0.64,0.129,1.3,0.19,1.95,0.19c2.63,0,5.21-1.061,7.07-2.919c0.46-0.47,0.88-0.98,1.25-1.52c0.36-0.55,0.67-1.13,0.92-1.73    s0.44-1.23,0.57-1.87c0.13-0.65,0.19-1.3,0.19-1.96C386.89,197.102,386.83,196.441,386.7,195.801z" fill="#325d88"/>
	</g>
</g>
<g>
	<g>
		<path d="M376.892,224.028c-5.523,0-10,4.478-10,10v78.539c0,5.522,4.477,10,10,10s10-4.477,10-10v-78.539    C386.892,228.506,382.415,224.028,376.892,224.028z" fill="#325d88"/>
	</g>
</g>
<g>
	<g>
		<path d="M135.108,240.631c-5.523,0-10,4.478-10,10v58.929c0,5.523,4.477,10,10,10c5.523,0,10-4.477,10-10v-58.929    C145.108,245.109,140.631,240.631,135.108,240.631z" fill="#325d88"/>
	</g>
</g>
<g>
	<g>
		<path d="M484.607,27.297H27.393C12.288,27.297,0,39.583,0,54.686V402.96c0,15.103,12.288,27.389,27.393,27.389h168.272    l-13.384,34.354h-72.235c-5.523,0-10,4.478-10,10c0,5.522,4.477,10,10,10h291.909c5.523,0,10-4.478,10-10c0-5.522-4.477-10-10-10    H329.72l-13.384-34.354h168.272c15.104,0,27.393-12.286,27.393-27.389V54.686C512,39.583,499.712,27.297,484.607,27.297z     M20,96.828h148.628v15.768h-77.04c-5.523,0-10,4.478-10,10v224.671H20V96.828z M101.588,200.349v-22.604h67.04v22.604H101.588z     M168.628,220.349v126.917h-67.04V220.349H168.628z M101.588,157.745v-25.15h67.04v25.15H101.588z M203.744,464.703l13.384-34.354    h77.743l13.385,34.354H203.744z M492,402.96c0,4.074-3.316,7.389-7.393,7.389H27.393c-4.076,0-7.393-3.314-7.393-7.389v-35.694    h472V402.96z M255.668,128.439v22.604h-67.04v-22.604H255.668z M188.629,108.44V83.013h67.04v25.426H188.629z M255.668,171.043    v176.223h-67.04V171.043H255.668z M323.372,161.594v25.15h-47.703v-25.15H323.372z M275.669,141.594V96.828h47.703v44.767H275.669    z M323.372,206.745v22.604h-47.703v-22.604H323.372z M323.372,249.348v97.918h-47.703v-97.918H323.372z M410.412,128.439v22.604    h-67.04v-22.604H410.412z M343.372,108.44V83.013h67.04v25.426H343.372z M410.412,171.043v176.223h-67.04V171.043H410.412z     M492,347.266h-61.588V96.828H492V347.266z M492.001,76.828h-61.588v-3.814c0-5.523-4.477-10-10-10h-87.04    c-5.523,0-10,4.477-10,10v3.814H275.67v-3.814c0-5.523-4.477-10-10-10h-87.04c-5.523,0-10,4.477-10,10v3.814H20V54.686    c0-4.075,3.316-7.389,7.393-7.389h457.215c4.076,0,7.393,3.314,7.393,7.389V76.828z" fill="#325d88"/>
	</g>
</g>
<g>
	<g>
		<path d="M299.52,269.63c-5.523,0-10,4.478-10,10v29.93c0,5.523,4.477,10,10,10s10-4.477,10-10v-29.93    C309.52,274.108,305.043,269.63,299.52,269.63z" fill="#325d88"/>
	</g>
</g>
<g>
</g>
<g>
</g>
<g>
</g>
<g>
</g>
<g>
</g>
<g>
</g>
<g>
</g>
<g>
</g>
<g>
</g>
<g>
</g>
<g>
</g>
<g>
</g>
<g>
</g>
<g>
</g>
<g>
</g>
</svg>
