<?xml version="1.0" encoding="iso-8859-1"?>
<!-- Generator: Adobe Illustrator 19.0.0, SVG Export Plug-In . SVG Version: 6.00 Build 0)  -->
<svg xmlns="http://www.w3.org/2000/svg" xmlns:xlink="http://www.w3.org/1999/xlink" version="1.1" id="Capa_1" x="0px" y="0px" viewBox="0 0 512 512" style="enable-background:new 0 0 512 512;" xml:space="preserve" width="512px" height="512px">
<g>
	<g>
		<path d="M81.75,47.801c-0.13-0.64-0.32-1.269-0.57-1.87c-0.25-0.599-0.56-1.189-0.92-1.729c-0.37-0.551-0.78-1.061-1.24-1.521    c-0.47-0.46-0.98-0.88-1.52-1.24c-0.55-0.359-1.13-0.67-1.73-0.92c-0.6-0.25-1.23-0.439-1.87-0.569c-1.29-0.261-2.62-0.261-3.91,0    c-0.64,0.13-1.27,0.319-1.87,0.569s-1.18,0.561-1.73,0.92c-0.54,0.36-1.059,0.78-1.52,1.24c-0.46,0.46-0.88,0.97-1.24,1.521    c-0.36,0.54-0.67,1.129-0.92,1.729c-0.25,0.6-0.44,1.23-0.57,1.87c-0.13,0.639-0.2,1.3-0.2,1.95c0,2.639,1.07,5.21,2.93,7.069    c0.46,0.471,0.98,0.881,1.52,1.25c0.55,0.36,1.13,0.671,1.73,0.921c0.6,0.25,1.23,0.439,1.87,0.569c0.65,0.129,1.3,0.19,1.96,0.19    c0.65,0,1.3-0.061,1.95-0.19c0.64-0.13,1.27-0.319,1.87-0.569c0.6-0.25,1.18-0.561,1.73-0.921c0.54-0.369,1.05-0.779,1.52-1.25    c1.86-1.859,2.93-4.429,2.93-7.069C81.95,49.101,81.88,48.441,81.75,47.801z" fill="#325d88"/>
	</g>
</g>
<g>
	<g>
		<path d="M480.986,79.514c-0.118-0.004-0.235-0.006-0.353-0.006H361.615V10c0-5.523-4.477-10-10-10H49.901    C22.467,0,0.148,22.319,0.148,49.754v371.854c0,27.435,22.319,49.754,49.753,49.754h120.135v9.418    c0,17.215,14.005,31.22,31.219,31.22h279.378c17.214,0,31.219-14.005,31.219-31.22V111.14    C511.852,94.017,498.294,80.124,480.986,79.514z M170.036,111.141v340.222H86.228v-0.001V145.255c0-5.522-4.477-10-10-10    c-5.523,0-10,4.478-10,10v306.107H49.901c-16.406,0-29.753-13.348-29.753-29.754v-332c8.304,6.215,18.606,9.9,29.753,9.9h122.343    C170.817,103.107,170.036,107.031,170.036,111.141z M49.901,79.508c-16.406,0-29.753-13.348-29.753-29.754    C20.148,33.348,33.495,20,49.901,20h291.714v19.754H102.933c-5.523,0-10,4.478-10,10c0,5.522,4.477,10,10,10h238.682v19.754    H49.901z M340.944,492c-9.241,0-16.76-7.519-16.76-16.761c0-9.241,7.518-16.76,16.76-16.76c9.241,0,16.76,7.518,16.76,16.76    S350.185,492,340.944,492z M229.463,438.48L229.463,438.48V140.763h222.961V438.48H229.463z M491.852,480.78L491.852,480.78    c0,6.186-5.033,11.22-11.219,11.22H373.655c2.587-5.029,4.048-10.727,4.048-16.761c0-6.033-1.461-11.731-4.048-16.76h88.768    c5.523,0,10-4.477,10-10V130.763c0-5.522-4.477-10-10-10h-242.96c-5.523,0-10,4.477-10,10V448.48c0,5.523,4.477,10,10,10h88.768    c-2.587,5.028-4.048,10.727-4.048,16.76s1.461,11.732,4.048,16.761H201.255c-6.186,0-11.219-5.033-11.219-11.22v-369.64    c0-6.145,5.11-11.332,11.421-11.633h278.974c6.311,0.301,11.421,5.488,11.421,11.633V480.78z" fill="#325d88"/>
	</g>
</g>
<g>
	<g>
		<path d="M392.18,353.723c-1.74-3.251-5.129-5.28-8.816-5.28h-12.721v-32.171c0-5.523-4.477-10-10-10h-39.397    c-5.523,0-10,4.477-10,10v32.171h-12.72c-3.688,0-7.076,2.029-8.816,5.28c-1.74,3.251-1.55,7.196,0.495,10.266l42.418,63.654    c1.854,2.782,4.978,4.454,8.322,4.454s6.467-1.672,8.321-4.454l42.419-63.654C393.73,360.919,393.92,356.975,392.18,353.723z     M340.944,404.064l-23.738-35.621h4.039c5.523,0,10-4.478,10-10v-32.171h19.397v22.171h-1.775c-5.523,0-10,4.477-10,10    c0,5.522,4.477,10,10,10h15.815L340.944,404.064z" fill="#325d88"/>
	</g>
</g>
<g>
	<g>
		<path d="M435.12,170.071c-0.13-0.639-0.32-1.269-0.57-1.869c-0.25-0.61-0.56-1.19-0.92-1.73c-0.36-0.55-0.78-1.06-1.24-1.52    c-0.46-0.46-0.98-0.881-1.52-1.24c-0.55-0.36-1.13-0.67-1.73-0.92c-0.6-0.25-1.23-0.44-1.87-0.57c-1.29-0.26-2.62-0.26-3.91,0    c-0.64,0.13-1.27,0.32-1.87,0.57c-0.6,0.25-1.18,0.56-1.73,0.92c-0.54,0.359-1.06,0.78-1.52,1.24c-0.46,0.461-0.88,0.97-1.24,1.52    c-0.361,0.54-0.67,1.12-0.92,1.73c-0.25,0.599-0.44,1.229-0.57,1.869c-0.13,0.641-0.2,1.301-0.2,1.95c0,0.65,0.07,1.311,0.2,1.96    c0.129,0.63,0.32,1.261,0.57,1.87c0.25,0.601,0.56,1.181,0.92,1.72c0.36,0.55,0.78,1.06,1.24,1.52c0.46,0.46,0.98,0.88,1.52,1.25    c0.55,0.36,1.13,0.67,1.73,0.92c0.6,0.25,1.23,0.44,1.87,0.57c0.65,0.13,1.3,0.189,1.95,0.189c2.64,0,5.22-1.07,7.08-2.929    c0.46-0.459,0.88-0.969,1.24-1.52c0.36-0.539,0.67-1.119,0.92-1.72c0.25-0.609,0.44-1.24,0.57-1.87    c0.13-0.649,0.19-1.31,0.19-1.96C435.31,171.372,435.25,170.712,435.12,170.071z" fill="#325d88"/>
	</g>
</g>
<g>
	<g>
		<path d="M395.83,162.023H256.574c-5.523,0-10,4.477-10,10c0,5.522,4.477,10,10,10H395.83c5.523,0,10-4.478,10-10    C405.83,166.5,401.353,162.023,395.83,162.023z" fill="#325d88"/>
	</g>
</g>
<g>
	<g>
		<path d="M425.315,211.245H256.574c-5.523,0-10,4.478-10,10c0,5.522,4.477,10,10,10h168.741c5.522,0,10-4.477,10-10    C435.315,215.723,430.838,211.245,425.315,211.245z" fill="#325d88"/>
	</g>
</g>
<g>
	<g>
		<path d="M425.315,260.468H256.574c-5.523,0-10,4.478-10,10c0,5.522,4.477,10,10,10h168.741c5.522,0,10-4.478,10-10    C435.315,264.946,430.838,260.468,425.315,260.468z" fill="#325d88"/>
	</g>
</g>
<g>
</g>
<g>
</g>
<g>
</g>
<g>
</g>
<g>
</g>
<g>
</g>
<g>
</g>
<g>
</g>
<g>
</g>
<g>
</g>
<g>
</g>
<g>
</g>
<g>
</g>
<g>
</g>
<g>
</g>
</svg>
